# xmcd CD database file
#
# Track frame offsets:
#	150
#	21834
#	44966
#	70016
#	92282
#	125878
#	156198
#	177392
#	206944
#	230910
#	256734
#	276192
#	303812
#
# Disc length: 4391 seconds
#
# Revision: 0
# Processed by: cddbd v1.5.2PL0 Copyright (c) Steve Scherf et al.
# Submitted via: CDex 1.51
#
DISCID=bd11250d
DTITLE=Pete Kartsounes - Live Tracks Volume 1
DYEAR=2007
DGENRE=Blues
TTITLE0=Down the Road
TTITLE1=Takes Me Home
TTITLE2=River, Oh River
TTITLE3=Journey's End
TTITLE4=Song for Mr. Charles
TTITLE5=Unravel
TTITLE6=Just a Part of Life
TTITLE7=The Last Dance
TTITLE8=Alone and Livin'
TTITLE9=Immigrants Life
TTITLE10=Sweet Carolina
TTITLE11=Sorry Tomorrow
TTITLE12=The Way Things Were
EXTD=YEAR: 2007
EXTT0=
EXTT1=
EXTT2=
EXTT3=
EXTT4=
EXTT5=
EXTT6=
EXTT7=
EXTT8=
EXTT9=
EXTT10=
EXTT11=
EXTT12=
PLAYORDER=
